<?xml version="1.0" encoding="UTF-8" standalone="no"?>
<!DOCTYPE svg PUBLIC "-//W3C//DTD SVG 1.1//EN" "http://www.w3.org/Graphics/SVG/1.1/DTD/svg11.dtd">
<svg xmlns="http://www.w3.org/2000/svg" version="1.1" viewBox="0 0 793 1072">
<g stroke-width="2.00" fill="none" stroke-linecap="butt">
<path stroke="#8d8f98" vector-effect="non-scaling-stroke" d="
  M 660.44 115.94
  C 652.14 125.29 652.48 138.73 658.78 149.22
  C 671.65 170.65 686.80 170.39 699.58 148.83
  C 705.40 139.02 706.02 126.24 698.78 117.12
  C 689.45 105.38 670.25 104.87 660.44 115.94"
/>
<path stroke="#8d8f98" vector-effect="non-scaling-stroke" d="
  M 686.95 819.76
  C 687.11 618.90 686.93 418.04 687.04 217.17
  A 0.55 0.54 -0.0 0 0 686.49 216.63
  L 671.68 216.65
  A 0.42 0.42 0.0 0 0 671.26 217.07
  L 671.25 825.00"
/>
<path stroke="#8d8f98" vector-effect="non-scaling-stroke" d="
  M 671.25 825.00
  Q 671.33 860.50 671.08 896.01
  Q 671.01 907.15 669.60 913.39
  C 664.89 934.19 649.98 950.63 629.43 957.08
  C 620.15 959.99 609.68 959.75 600.67 959.75
  Q 364.86 959.76 129.06 959.74
  Q 114.61 959.74 109.11 958.87
  C 82.31 954.61 59.80 931.48 59.31 903.75
  Q 58.50 857.62 59.28 768.75
  C 59.30 766.62 58.88 764.39 58.89 762.75
  Q 59.26 705.42 59.08 626.81
  C 58.86 529.16 59.18 384.05 59.30 207.33
  Q 59.31 196.51 60.53 190.92
  C 65.94 166.16 86.58 147.80 111.84 144.98
  C 117.73 144.33 125.15 144.50 130.51 144.50
  Q 364.52 144.49 598.54 144.51
  A 0.49 0.49 0.0 0 0 599.03 144.02
  L 599.11 129.21
  A 0.46 0.46 0.0 0 0 598.65 128.75
  Q 361.20 128.75 123.75 128.75
  Q 110.43 128.75 103.84 129.98
  C 73.61 135.60 50.33 159.67 44.58 189.40
  Q 43.25 196.32 43.25 208.70
  Q 43.25 552.11 43.25 895.51
  Q 43.25 908.37 44.62 915.28
  C 50.49 944.97 74.15 968.75 104.09 974.28
  Q 110.65 975.50 124.00 975.50
  Q 365.85 975.51 607.70 975.49
  Q 620.25 975.49 627.08 974.14
  C 657.25 968.16 680.09 944.14 685.72 914.52
  Q 687.05 907.49 687.04 894.89
  Q 687.00 857.32 686.95 819.76"
/>
<path stroke="#1b1f32" vector-effect="non-scaling-stroke" d="
  M 671.25 825.00
  L 672.20 821.20
  Q 672.39 820.43 672.71 821.15
  L 672.99 821.75
  Q 673.25 822.34 673.26 821.75
  Q 673.27 821.59 673.38 821.47
  A 0.33 0.32 58.1 0 1 673.92 821.60
  L 674.22 822.48
  A 0.43 0.43 0.0 0 0 674.90 822.68
  L 676.68 821.25
  A 1.19 1.16 -17.6 0 0 677.12 820.43
  Q 677.28 818.40 679.27 817.71
  A 1.34 1.34 0.0 0 0 679.95 817.18
  L 683.65 811.51
  A 1.00 1.00 0.0 0 1 684.59 811.05
  L 685.89 811.17
  A 0.54 0.54 0.0 0 1 686.39 811.75
  Q 686.12 815.80 686.95 819.76"
/>
<path stroke="#f6f8fb" vector-effect="non-scaling-stroke" d="
  M 459.90 323.63
  A 93.46 93.46 0.0 0 0 366.44 230.17
  A 93.46 93.46 0.0 0 0 272.98 323.63
  A 93.46 93.46 0.0 0 0 366.44 417.09
  A 93.46 93.46 0.0 0 0 459.90 323.63"
/>
<path stroke="#d8dbe3" vector-effect="non-scaling-stroke" d="
  M 515.94 478.29
  A 21.03 21.03 0.0 0 0 494.91 457.26
  L 238.05 457.26
  A 21.03 21.03 0.0 0 0 217.02 478.29
  L 217.02 478.95
  A 21.03 21.03 0.0 0 0 238.05 499.98
  L 494.91 499.98
  A 21.03 21.03 0.0 0 0 515.94 478.95
  L 515.94 478.29"
/>
<path stroke="#f6f8fb" vector-effect="non-scaling-stroke" d="
  M 190.0623 596.3454
  A 26.91 26.91 0.0 0 0 163.1054 569.4824
  L 131.3855 569.5377
  A 26.91 26.91 0.0 0 0 104.5225 596.4947
  L 104.5777 628.1146
  A 26.91 26.91 0.0 0 0 131.5346 654.9776
  L 163.2545 654.9223
  A 26.91 26.91 0.0 0 0 190.1175 627.9653
  L 190.0623 596.3454"
/>
<path stroke="#f6f8fb" vector-effect="non-scaling-stroke" d="
  M 515.96 611.99
  A 13.23 13.23 0.0 0 0 502.73 598.76
  L 230.23 598.76
  A 13.23 13.23 0.0 0 0 217.00 611.99
  L 217.00 612.27
  A 13.23 13.23 0.0 0 0 230.23 625.50
  L 502.73 625.50
  A 13.23 13.23 0.0 0 0 515.96 612.27
  L 515.96 611.99"
/>
<path stroke="#f6f8fb" vector-effect="non-scaling-stroke" d="
  M 190.0177 740.5745
  A 26.68 26.68 0.0 0 0 163.3843 713.8480
  L 131.3444 713.7921
  A 26.68 26.68 0.0 0 0 104.6179 740.4255
  L 104.5623 772.2655
  A 26.68 26.68 0.0 0 0 131.1957 798.9920
  L 163.2356 799.0479
  A 26.68 26.68 0.0 0 0 189.9621 772.4145
  L 190.0177 740.5745"
/>
<path stroke="#f6f8fb" vector-effect="non-scaling-stroke" d="
  M 515.90 756.36
  A 13.34 13.34 0.0 0 0 502.56 743.02
  L 230.40 743.02
  A 13.34 13.34 0.0 0 0 217.06 756.36
  L 217.06 756.64
  A 13.34 13.34 0.0 0 0 230.40 769.98
  L 502.56 769.98
  A 13.34 13.34 0.0 0 0 515.90 756.64
  L 515.90 756.36"
/>
<path stroke="#8d8f98" vector-effect="non-scaling-stroke" d="
  M 699.14 139.68
  C 708.28 108.23 660.17 101.48 658.11 131.01
  C 657.46 140.23 662.51 149.59 669.00 156.14
  C 678.81 166.05 686.55 160.23 693.43 151.04
  Q 697.36 145.78 699.14 139.68"
/>
<path stroke="#8d8f98" vector-effect="non-scaling-stroke" d="
  M 679.63 137.03
  L 683.17 140.53
  A 1.65 1.59 72.7 0 0 683.97 140.97
  Q 685.64 141.35 686.28 139.91
  A 1.65 1.63 -55.4 0 0 685.96 138.10
  L 682.34 134.39
  A 0.57 0.57 0.0 0 1 682.34 133.59
  L 685.99 129.77
  A 1.62 1.62 0.0 0 0 685.75 127.33
  C 683.40 125.68 680.95 129.15 679.44 130.63
  A 0.55 0.54 -47.0 0 1 678.70 130.66
  C 677.00 129.17 674.48 125.20 672.11 127.55
  A 1.36 1.36 0.0 0 0 672.11 129.48
  L 675.95 133.32
  A 0.57 0.57 0.0 0 1 675.95 134.12
  C 674.69 135.43 670.56 138.58 672.30 140.54
  Q 673.62 142.04 675.07 140.67
  L 678.94 137.02
  A 0.50 0.50 0.0 0 1 679.63 137.03"
/>
<path stroke="#d0d5e0" vector-effect="non-scaling-stroke" d="
  M 384.24 305.83
  A 17.76 17.76 0.0 0 0 366.48 288.07
  A 17.76 17.76 0.0 0 0 348.72 305.83
  A 17.76 17.76 0.0 0 0 366.48 323.59
  A 17.76 17.76 0.0 0 0 384.24 305.83"
/>
<path stroke="#d0d5e0" vector-effect="non-scaling-stroke" d="
  M 335.25 360.99
  L 397.44 361.00
  A 1.30 1.29 0.9 0 0 398.74 359.75
  C 399.09 349.93 392.61 341.46 384.18 337.12
  Q 369.42 329.51 353.62 334.93
  C 342.70 338.68 333.79 347.98 334.23 360.02
  A 1.02 1.01 -1.2 0 0 335.25 360.99"
/>
</g>
<path fill="#fefefe" d="
  M 0.00 0.00
  L 793.00 0.00
  L 793.00 1072.00
  L 0.00 1072.00
  L 0.00 0.00
  Z
  M 660.44 115.94
  C 652.14 125.29 652.48 138.73 658.78 149.22
  C 671.65 170.65 686.80 170.39 699.58 148.83
  C 705.40 139.02 706.02 126.24 698.78 117.12
  C 689.45 105.38 670.25 104.87 660.44 115.94
  Z
  M 686.95 819.76
  C 687.11 618.90 686.93 418.04 687.04 217.17
  A 0.55 0.54 -0.0 0 0 686.49 216.63
  L 671.68 216.65
  A 0.42 0.42 0.0 0 0 671.26 217.07
  L 671.25 825.00
  Q 671.33 860.50 671.08 896.01
  Q 671.01 907.15 669.60 913.39
  C 664.89 934.19 649.98 950.63 629.43 957.08
  C 620.15 959.99 609.68 959.75 600.67 959.75
  Q 364.86 959.76 129.06 959.74
  Q 114.61 959.74 109.11 958.87
  C 82.31 954.61 59.80 931.48 59.31 903.75
  Q 58.50 857.62 59.28 768.75
  C 59.30 766.62 58.88 764.39 58.89 762.75
  Q 59.26 705.42 59.08 626.81
  C 58.86 529.16 59.18 384.05 59.30 207.33
  Q 59.31 196.51 60.53 190.92
  C 65.94 166.16 86.58 147.80 111.84 144.98
  C 117.73 144.33 125.15 144.50 130.51 144.50
  Q 364.52 144.49 598.54 144.51
  A 0.49 0.49 0.0 0 0 599.03 144.02
  L 599.11 129.21
  A 0.46 0.46 0.0 0 0 598.65 128.75
  Q 361.20 128.75 123.75 128.75
  Q 110.43 128.75 103.84 129.98
  C 73.61 135.60 50.33 159.67 44.58 189.40
  Q 43.25 196.32 43.25 208.70
  Q 43.25 552.11 43.25 895.51
  Q 43.25 908.37 44.62 915.28
  C 50.49 944.97 74.15 968.75 104.09 974.28
  Q 110.65 975.50 124.00 975.50
  Q 365.85 975.51 607.70 975.49
  Q 620.25 975.49 627.08 974.14
  C 657.25 968.16 680.09 944.14 685.72 914.52
  Q 687.05 907.49 687.04 894.89
  Q 687.00 857.32 686.95 819.76
  Z
  M 459.90 323.63
  A 93.46 93.46 0.0 0 0 366.44 230.17
  A 93.46 93.46 0.0 0 0 272.98 323.63
  A 93.46 93.46 0.0 0 0 366.44 417.09
  A 93.46 93.46 0.0 0 0 459.90 323.63
  Z
  M 515.94 478.29
  A 21.03 21.03 0.0 0 0 494.91 457.26
  L 238.05 457.26
  A 21.03 21.03 0.0 0 0 217.02 478.29
  L 217.02 478.95
  A 21.03 21.03 0.0 0 0 238.05 499.98
  L 494.91 499.98
  A 21.03 21.03 0.0 0 0 515.94 478.95
  L 515.94 478.29
  Z
  M 190.0623 596.3454
  A 26.91 26.91 0.0 0 0 163.1054 569.4824
  L 131.3855 569.5377
  A 26.91 26.91 0.0 0 0 104.5225 596.4947
  L 104.5777 628.1146
  A 26.91 26.91 0.0 0 0 131.5346 654.9776
  L 163.2545 654.9223
  A 26.91 26.91 0.0 0 0 190.1175 627.9653
  L 190.0623 596.3454
  Z
  M 515.96 611.99
  A 13.23 13.23 0.0 0 0 502.73 598.76
  L 230.23 598.76
  A 13.23 13.23 0.0 0 0 217.00 611.99
  L 217.00 612.27
  A 13.23 13.23 0.0 0 0 230.23 625.50
  L 502.73 625.50
  A 13.23 13.23 0.0 0 0 515.96 612.27
  L 515.96 611.99
  Z
  M 190.0177 740.5745
  A 26.68 26.68 0.0 0 0 163.3843 713.8480
  L 131.3444 713.7921
  A 26.68 26.68 0.0 0 0 104.6179 740.4255
  L 104.5623 772.2655
  A 26.68 26.68 0.0 0 0 131.1957 798.9920
  L 163.2356 799.0479
  A 26.68 26.68 0.0 0 0 189.9621 772.4145
  L 190.0177 740.5745
  Z
  M 515.90 756.36
  A 13.34 13.34 0.0 0 0 502.56 743.02
  L 230.40 743.02
  A 13.34 13.34 0.0 0 0 217.06 756.36
  L 217.06 756.64
  A 13.34 13.34 0.0 0 0 230.40 769.98
  L 502.56 769.98
  A 13.34 13.34 0.0 0 0 515.90 756.64
  L 515.90 756.36
  Z"
/>
<path fill="#1b1f32" d="
  M 660.44 115.94
  C 670.25 104.87 689.45 105.38 698.78 117.12
  C 706.02 126.24 705.40 139.02 699.58 148.83
  C 686.80 170.39 671.65 170.65 658.78 149.22
  C 652.48 138.73 652.14 125.29 660.44 115.94
  Z
  M 699.14 139.68
  C 708.28 108.23 660.17 101.48 658.11 131.01
  C 657.46 140.23 662.51 149.59 669.00 156.14
  C 678.81 166.05 686.55 160.23 693.43 151.04
  Q 697.36 145.78 699.14 139.68
  Z"
/>
<path fill="#fefefe" d="
  M 658.11 131.01
  C 660.17 101.48 708.28 108.23 699.14 139.68
  Q 697.36 145.78 693.43 151.04
  C 686.55 160.23 678.81 166.05 669.00 156.14
  C 662.51 149.59 657.46 140.23 658.11 131.01
  Z
  M 679.63 137.03
  L 683.17 140.53
  A 1.65 1.59 72.7 0 0 683.97 140.97
  Q 685.64 141.35 686.28 139.91
  A 1.65 1.63 -55.4 0 0 685.96 138.10
  L 682.34 134.39
  A 0.57 0.57 0.0 0 1 682.34 133.59
  L 685.99 129.77
  A 1.62 1.62 0.0 0 0 685.75 127.33
  C 683.40 125.68 680.95 129.15 679.44 130.63
  A 0.55 0.54 -47.0 0 1 678.70 130.66
  C 677.00 129.17 674.48 125.20 672.11 127.55
  A 1.36 1.36 0.0 0 0 672.11 129.48
  L 675.95 133.32
  A 0.57 0.57 0.0 0 1 675.95 134.12
  C 674.69 135.43 670.56 138.58 672.30 140.54
  Q 673.62 142.04 675.07 140.67
  L 678.94 137.02
  A 0.50 0.50 0.0 0 1 679.63 137.03
  Z"
/>
<path fill="#1b1f32" d="
  M 678.94 137.02
  L 675.07 140.67
  Q 673.62 142.04 672.30 140.54
  C 670.56 138.58 674.69 135.43 675.95 134.12
  A 0.57 0.57 0.0 0 0 675.95 133.32
  L 672.11 129.48
  A 1.36 1.36 0.0 0 1 672.11 127.55
  C 674.48 125.20 677.00 129.17 678.70 130.66
  A 0.55 0.54 -47.0 0 0 679.44 130.63
  C 680.95 129.15 683.40 125.68 685.75 127.33
  A 1.62 1.62 0.0 0 1 685.99 129.77
  L 682.34 133.59
  A 0.57 0.57 0.0 0 0 682.34 134.39
  L 685.96 138.10
  A 1.65 1.63 -55.4 0 1 686.28 139.91
  Q 685.64 141.35 683.97 140.97
  A 1.65 1.59 72.7 0 1 683.17 140.53
  L 679.63 137.03
  A 0.50 0.50 0.0 0 0 678.94 137.02
  Z"
/>
<path fill="#1b1f32" d="
  M 671.25 825.00
  L 672.20 821.20
  Q 672.39 820.43 672.71 821.15
  L 672.99 821.75
  Q 673.25 822.34 673.26 821.75
  Q 673.27 821.59 673.38 821.47
  A 0.33 0.32 58.1 0 1 673.92 821.60
  L 674.22 822.48
  A 0.43 0.43 0.0 0 0 674.90 822.68
  L 676.68 821.25
  A 1.19 1.16 -17.6 0 0 677.12 820.43
  Q 677.28 818.40 679.27 817.71
  A 1.34 1.34 0.0 0 0 679.95 817.18
  L 683.65 811.51
  A 1.00 1.00 0.0 0 1 684.59 811.05
  L 685.89 811.17
  A 0.54 0.54 0.0 0 1 686.39 811.75
  Q 686.12 815.80 686.95 819.76
  Q 687.00 857.32 687.04 894.89
  Q 687.05 907.49 685.72 914.52
  C 680.09 944.14 657.25 968.16 627.08 974.14
  Q 620.25 975.49 607.70 975.49
  Q 365.85 975.51 124.00 975.50
  Q 110.65 975.50 104.09 974.28
  C 74.15 968.75 50.49 944.97 44.62 915.28
  Q 43.25 908.37 43.25 895.51
  Q 43.25 552.11 43.25 208.70
  Q 43.25 196.32 44.58 189.40
  C 50.33 159.67 73.61 135.60 103.84 129.98
  Q 110.43 128.75 123.75 128.75
  Q 361.20 128.75 598.65 128.75
  A 0.46 0.46 0.0 0 1 599.11 129.21
  L 599.03 144.02
  A 0.49 0.49 0.0 0 1 598.54 144.51
  Q 364.52 144.49 130.51 144.50
  C 125.15 144.50 117.73 144.33 111.84 144.98
  C 86.58 147.80 65.94 166.16 60.53 190.92
  Q 59.31 196.51 59.30 207.33
  C 59.18 384.05 58.86 529.16 59.08 626.81
  Q 59.26 705.42 58.89 762.75
  C 58.88 764.39 59.30 766.62 59.28 768.75
  Q 58.50 857.62 59.31 903.75
  C 59.80 931.48 82.31 954.61 109.11 958.87
  Q 114.61 959.74 129.06 959.74
  Q 364.86 959.76 600.67 959.75
  C 609.68 959.75 620.15 959.99 629.43 957.08
  C 649.98 950.63 664.89 934.19 669.60 913.39
  Q 671.01 907.15 671.08 896.01
  Q 671.33 860.50 671.25 825.00
  Z"
/>
<path fill="#1b1f32" d="
  M 686.95 819.76
  Q 686.12 815.80 686.39 811.75
  A 0.54 0.54 0.0 0 0 685.89 811.17
  L 684.59 811.05
  A 1.00 1.00 0.0 0 0 683.65 811.51
  L 679.95 817.18
  A 1.34 1.34 0.0 0 1 679.27 817.71
  Q 677.28 818.40 677.12 820.43
  A 1.19 1.16 -17.6 0 1 676.68 821.25
  L 674.90 822.68
  A 0.43 0.43 0.0 0 1 674.22 822.48
  L 673.92 821.60
  A 0.33 0.32 58.1 0 0 673.38 821.47
  Q 673.27 821.59 673.26 821.75
  Q 673.25 822.34 672.99 821.75
  L 672.71 821.15
  Q 672.39 820.43 672.20 821.20
  L 671.25 825.00
  L 671.26 217.07
  A 0.42 0.42 0.0 0 1 671.68 216.65
  L 686.49 216.63
  A 0.55 0.54 0.0 0 1 687.04 217.17
  C 686.93 418.04 687.11 618.90 686.95 819.76
  Z"
/>
<path fill="#eef1f8" d="
  M 459.90 323.63
  A 93.46 93.46 0.0 0 1 366.44 417.09
  A 93.46 93.46 0.0 0 1 272.98 323.63
  A 93.46 93.46 0.0 0 1 366.44 230.17
  A 93.46 93.46 0.0 0 1 459.90 323.63
  Z
  M 384.24 305.83
  A 17.76 17.76 0.0 0 0 366.48 288.07
  A 17.76 17.76 0.0 0 0 348.72 305.83
  A 17.76 17.76 0.0 0 0 366.48 323.59
  A 17.76 17.76 0.0 0 0 384.24 305.83
  Z
  M 335.25 360.99
  L 397.44 361.00
  A 1.30 1.29 0.9 0 0 398.74 359.75
  C 399.09 349.93 392.61 341.46 384.18 337.12
  Q 369.42 329.51 353.62 334.93
  C 342.70 338.68 333.79 347.98 334.23 360.02
  A 1.02 1.01 -1.2 0 0 335.25 360.99
  Z"
/>
<circle fill="#b1b8c8" cx="366.48" cy="305.83" r="17.76"/>
<path fill="#b1b8c8" d="
  M 335.25 360.99
  A 1.02 1.01 -1.2 0 1 334.23 360.02
  C 333.79 347.98 342.70 338.68 353.62 334.93
  Q 369.42 329.51 384.18 337.12
  C 392.61 341.46 399.09 349.93 398.74 359.75
  A 1.30 1.29 0.9 0 1 397.44 361.00
  L 335.25 360.99
  Z"
/>
<rect fill="#b1b8c8" x="217.02" y="457.26" width="298.92" height="42.72" rx="21.03"/>
<rect fill="#eef1f8" x="-42.77" y="-42.72" transform="translate(147.32,612.23) rotate(-0.1)" width="85.54" height="85.44" rx="26.91"/>
<rect fill="#eef1f8" x="217.00" y="598.76" width="298.96" height="26.74" rx="13.23"/>
<rect fill="#eef1f8" x="-42.70" y="-42.60" transform="translate(147.29,756.42) rotate(0.1)" width="85.40" height="85.20" rx="26.68"/>
<rect fill="#eef1f8" x="217.06" y="743.02" width="298.84" height="26.96" rx="13.34"/>
</svg>
